<?xml version="1.0" encoding="utf-8"?>
<!-- Generator: Adobe Illustrator 24.2.1, SVG Export Plug-In . SVG Version: 6.00 Build 0)  -->
<svg version="1.1" id="Layer_1" xmlns="http://www.w3.org/2000/svg" xmlns:xlink="http://www.w3.org/1999/xlink" x="0px" y="0px"
	 viewBox="0 0 132 30" style="enable-background:new 0 0 132 30;" xml:space="preserve">
<style type="text/css">
	.st0{fill:#2E74FF;}
</style>
<path class="st0" d="M1.27,18.76L1.2,6.05c0-0.53,0.27-1.03,0.73-1.35h0h5.85c0.44,0,0.8,0.33,0.79,0.73L8.44,20.38
	c-0.01,0.58-0.64,0.98-1.24,0.77L1.27,18.76"/>
<path class="st0" d="M10.14,4.7h4.52c0.16,0,0.32,0.04,0.46,0.12l0.59,0.32C15.83,5.2,15.92,5.28,16,5.38l3.16,4.26
	c0.1,0.14,0.15,0.29,0.15,0.46v0.26c0,0.16-0.05,0.31-0.14,0.44l-3.07,4.39c-0.08,0.11-0.18,0.2-0.3,0.26l-0.43,0.23
	c-0.13,0.07-0.29,0.11-0.44,0.11l-4.88,0.07c-0.69,0.01-1.14-0.67-0.79-1.22l2.49-3.95c0.16-0.25,0.16-0.55,0.01-0.8l-2.4-3.98
	C9.03,5.37,9.46,4.7,10.14,4.7z"/>
<g>
	<path d="M20.55,9.32h2.3l0.2,2.04h0.07c0.69-1.56,1.74-2.32,2.71-2.32c0.54,0,0.86,0.09,1.14,0.24l-0.47,2.99
		c-0.34-0.1-0.62-0.19-1.03-0.19c-0.72,0-1.59,0.57-2.1,2.16V21h-2.82V9.32z"/>
	<path d="M27.98,5.81c0-1.06,0.69-1.81,1.63-1.81s1.63,0.75,1.63,1.81c0,1.05-0.69,1.81-1.63,1.81S27.98,6.86,27.98,5.81z
		 M28.2,9.32h2.82V21H28.2V9.32z"/>
	<path d="M33.5,9.32h2.3l0.2,1.5h0.07c0.78-0.96,1.64-1.78,2.89-1.78c1.34,0,2.15,0.71,2.63,1.97c0.84-1.07,1.73-1.97,2.99-1.97
		c2.06,0,2.98,1.79,2.98,4.71V21h-2.82V14.2c0-1.68-0.38-2.21-1.18-2.21c-0.48,0-1.02,0.37-1.62,1.14V21h-2.82V14.2
		c0-1.68-0.38-2.21-1.18-2.21c-0.47,0-1.02,0.37-1.62,1.14V21H33.5V9.32z"/>
	<path d="M49.41,15.17c0-3.79,2.21-6.13,4.5-6.13c2.71,0,4.06,2.42,4.06,5.61c0,0.62-0.06,1.25-0.12,1.53h-5.7
		c0.25,1.69,1.2,2.47,2.47,2.47c0.72,0,1.37-0.27,2.06-0.76l0.93,2.09c-0.98,0.83-2.25,1.32-3.38,1.32
		C51.51,21.29,49.41,19.04,49.41,15.17z M55.55,13.89c0-1.28-0.46-2.21-1.58-2.21c-0.89,0-1.66,0.73-1.85,2.21H55.55z"/>
	<path d="M63.4,13.42c0-5.09,2.76-8.04,6.1-8.04c1.82,0,3.11,0.95,3.95,1.99l-1.49,2.23c-0.62-0.7-1.29-1.22-2.36-1.22
		c-1.93,0-3.3,1.86-3.3,4.93c0,3.15,1.17,4.99,3.52,4.99c0.5,0,1.02-0.16,1.33-0.46v-2.65h-2.07v-2.83h4.59v7.08
		c-0.86,1.04-2.38,1.86-4.13,1.86C66.08,21.29,63.4,18.59,63.4,13.42z"/>
	<path d="M75.57,17.77c0-2.46,1.6-3.79,5.37-4.28c-0.06-1.02-0.47-1.69-1.51-1.69c-0.8,0-1.6,0.41-2.52,1.06l-1-2.27
		c1.21-0.91,2.57-1.54,4.07-1.54c2.44,0,3.79,1.71,3.79,5.29V21h-2.3l-0.2-1.2h-0.07c-0.8,0.86-1.7,1.48-2.77,1.48
		C76.68,21.29,75.57,19.73,75.57,17.77z M80.94,17.61v-2.04c-2.01,0.33-2.66,1.04-2.66,1.92c0,0.75,0.42,1.12,1.09,1.12
		C80.01,18.61,80.44,18.22,80.94,17.61z"/>
	<path d="M85.65,15.17c0-3.82,1.95-6.13,3.95-6.13c1.05,0,1.69,0.48,2.34,1.22l-0.1-1.77V4.51h2.82V21h-2.3l-0.2-1.16h-0.07
		c-0.67,0.83-1.62,1.44-2.54,1.44C87.17,21.29,85.65,18.98,85.65,15.17z M91.83,17.41v-4.8c-0.5-0.55-1.06-0.74-1.58-0.74
		c-0.92,0-1.72,1.04-1.72,3.26c0,2.29,0.65,3.33,1.74,3.33C90.88,18.46,91.37,18.18,91.83,17.41z"/>
	<path d="M96.56,23.01c0-0.97,0.47-1.75,1.35-2.35v-0.09c-0.49-0.41-0.87-1.02-0.87-1.98c0-0.84,0.46-1.67,1.06-2.19V16.3
		c-0.67-0.57-1.28-1.67-1.28-3.03c0-2.8,1.89-4.23,3.94-4.23c0.53,0,1.05,0.1,1.48,0.28h3.49v2.52h-1.53
		c0.18,0.35,0.32,0.93,0.32,1.54c0,2.69-1.67,3.93-3.75,3.93c-0.35,0-0.74-0.07-1.16-0.23c-0.23,0.25-0.33,0.46-0.33,0.87
		c0,0.58,0.38,0.86,1.43,0.86h1.55c2.34,0,3.64,0.88,3.64,2.97c0,2.43-2.06,4.19-5.33,4.19C98.33,25.97,96.56,25.09,96.56,23.01z
		 M103.17,22.37c0-0.74-0.51-0.91-1.45-0.91h-0.99c-0.65,0-1.03-0.05-1.33-0.15c-0.35,0.37-0.52,0.73-0.52,1.15
		c0,0.89,0.84,1.34,2.11,1.34C102.27,23.8,103.17,23.18,103.17,22.37z M102.06,13.27c0-1.24-0.55-1.9-1.3-1.9s-1.3,0.65-1.3,1.9
		c0,1.28,0.56,1.95,1.3,1.95C101.51,15.21,102.06,14.55,102.06,13.27z"/>
	<path d="M106.5,15.17c0-3.79,2.21-6.13,4.5-6.13c2.71,0,4.06,2.42,4.06,5.61c0,0.62-0.06,1.25-0.12,1.53h-5.7
		c0.25,1.69,1.2,2.47,2.47,2.47c0.72,0,1.37-0.27,2.06-0.76l0.93,2.09c-0.98,0.83-2.25,1.32-3.38,1.32
		C108.61,21.29,106.5,19.04,106.5,15.17z M112.64,13.89c0-1.28-0.46-2.21-1.58-2.21c-0.89,0-1.66,0.73-1.85,2.21H112.64z"/>
	<path d="M117.2,16.76v-4.72h-1.3V9.46l1.46-0.13l0.33-3.1h2.34v3.1h2.28v2.72h-2.28v4.68c0,1.32,0.49,1.86,1.23,1.86
		c0.31,0,0.66-0.11,0.91-0.22l0.45,2.51c-0.51,0.2-1.19,0.42-2.12,0.42C118.13,21.29,117.2,19.46,117.2,16.76z"/>
	<path d="M123.14,19.66l1.27-2.16c0.86,0.8,1.66,1.23,2.46,1.23c0.84,0,1.2-0.39,1.2-1c0-0.77-0.94-1.12-1.92-1.59
		c-1.17-0.55-2.52-1.5-2.52-3.44c0-2.17,1.44-3.66,3.64-3.66c1.46,0,2.55,0.72,3.36,1.48l-1.26,2.08c-0.68-0.6-1.35-1-2.01-1
		c-0.73,0-1.09,0.35-1.09,0.93c0,0.74,0.89,1.03,1.88,1.47c1.21,0.55,2.57,1.38,2.57,3.52c0,2.11-1.36,3.77-3.91,3.77
		C125.54,21.29,124.1,20.62,123.14,19.66z"/>
</g>
</svg>
